HIERARCHY
ROOT root
{
	OFFSET	0	13.1	24.9
	CHANNELS 6  Xposition Yposition Zposition Xrotation Yrotation Zrotation
	JOINT spine_1
	{
		OFFSET	0	9.99999	0
		CHANNELS 3  Xrotation Yrotation Zrotation
		JOINT spine_2
		{
			OFFSET	0	112	-10
			CHANNELS 3  Xrotation Yrotation Zrotation
			JOINT spine_3
			{
				OFFSET	0	206.5	19.3
				CHANNELS 3  Xrotation Yrotation Zrotation
				JOINT spine_4
				{
					OFFSET	0	110.4	14.6
					CHANNELS 3  Xrotation Yrotation Zrotation
					JOINT neck_1
					{
						OFFSET	0	71.8	-50.3
						CHANNELS 3  Xrotation Yrotation Zrotation
						JOINT neck_2
						{
							OFFSET	0	86.2	-25.8
							CHANNELS 3  Xrotation Yrotation Zrotation
							JOINT head_ee
							{
								OFFSET	0	179.8	-8.7
								CHANNELS 3  Xrotation Yrotation Zrotation
								End Site
								{
									OFFSET	1	0	0
								}
							}
						}
					}
					JOINT left_clavicle
					{
						OFFSET	-43.2	22.4	-70.8
						CHANNELS 3  Xrotation Yrotation Zrotation
						JOINT left_shoulder
						{
							OFFSET	-93.9	-5.79999	48.7
							CHANNELS 3  Xrotation Yrotation Zrotation
							JOINT left_elbow
							{
								OFFSET	-291.4	-30.8	15.2
								CHANNELS 3  Xrotation Yrotation Zrotation
								JOINT left_lowarm_twist
								{
									OFFSET	-110.7	-3.89999	13.6
									CHANNELS 3  Xrotation Yrotation Zrotation
									JOINT left_hand
									{
										OFFSET	-110.7	-3.89999	13.6
										CHANNELS 3  Xrotation Yrotation Zrotation
										JOINT left_ee
										{
											OFFSET	-80.8	-5.10001	12.1
											CHANNELS 3  Xrotation Yrotation Zrotation
											End Site
											{
												OFFSET	1	0	0
											}
										}
									}
								}
							}
						}
					}
					JOINT right_clavicle
					{
						OFFSET	43.2	22.4	-70.8
						CHANNELS 3  Xrotation Yrotation Zrotation
						JOINT right_shoulder
						{
							OFFSET	93.9	-5.79999	48.7
							CHANNELS 3  Xrotation Yrotation Zrotation
							JOINT right_elbow
							{
								OFFSET	291.4	-30.8	15.2
								CHANNELS 3  Xrotation Yrotation Zrotation
								JOINT right_lowarm_twist
								{
									OFFSET	110.7	-3.89999	13.6
									CHANNELS 3  Xrotation Yrotation Zrotation
									JOINT right_hand
									{
										OFFSET	110.7	-3.89999	13.6
										CHANNELS 3  Xrotation Yrotation Zrotation
										JOINT right_ee
										{
											OFFSET	80.8	-5.10001	12.1
											CHANNELS 3  Xrotation Yrotation Zrotation
											End Site
											{
												OFFSET	1	0	0
											}
										}
									}
								}
							}
						}
					}
				}
			}
		}
	}
	JOINT left_hip
	{
		OFFSET	-82.8	-127.5	0.300001
		CHANNELS 3  Xrotation Yrotation Zrotation
		JOINT left_knee
		{
			OFFSET	-28.2	-396.7	2.2
			CHANNELS 3  Xrotation Yrotation Zrotation
			JOINT left_ankle
			{
				OFFSET	-11.7	-411.3	35.4
				CHANNELS 3  Xrotation Yrotation Zrotation
				JOINT left_toes
				{
					OFFSET	0	-60	-88.6
					CHANNELS 3  Xrotation Yrotation Zrotation
					JOINT left_foot_ee
					{
						OFFSET	-22.5	-16.5	-42.2
						CHANNELS 3  Xrotation Yrotation Zrotation
						End Site
						{
							OFFSET	1	0	0
						}
					}
				}
			}
		}
	}
	JOINT right_hip
	{
		OFFSET	82.8	-127.5	0.300001
		CHANNELS 3  Xrotation Yrotation Zrotation
		JOINT right_knee
		{
			OFFSET	28.2	-396.7	2.2
			CHANNELS 3  Xrotation Yrotation Zrotation
			JOINT right_ankle
			{
				OFFSET	11.7	-411.3	35.4
				CHANNELS 3  Xrotation Yrotation Zrotation
				JOINT right_toes
				{
					OFFSET	0	-60	-88.6
					CHANNELS 3  Xrotation Yrotation Zrotation
					JOINT right_foot_ee
					{
						OFFSET	22.5	-16.5	-42.2
						CHANNELS 3  Xrotation Yrotation Zrotation
						End Site
						{
							OFFSET	1	0	0
						}
					}
				}
			}
		}
	}
}
MOTION
Frames: 9
Frame Time: 0.02
1037.8875623 735.44 -1568.13738444 27.3007024049 59.3881903348 -30.2319748424 -6.58762 0.915157 1.48029 -6.58677 0.819119 1.53551 -6.56104 0.283973 1.71696 -6.56473 0.551535 1.6506 -6.66596 7.69369 6.21247 -6.56819 9.75312 7.73204 -0.0 0.0 -0.0 2.44897 -8.91575 3.98359 -5.97586 -4.08685 77.054 0.275567 -7.77345 0.0187222 -85.2692 -8.48557 5.17789 0.176337 -24.5922 -9.27203 -0.0 0.0 -0.0 0.70369 29.0052 1.78151 18.3343 24.6398 -67.6124 0.971508 25.699 -0.221609 37.0619 0.205328 4.64844 -1.34256 -28.4973 -3.84844 0.0 0.0 0.0 5.04982 13.6664 -0.854481 -62.3204 -2.45568 8.776 26.7508 -29.217 -4.34217 -33.263 0.0 0.0 -0.0 0.0 -0.0 0.148509 7.40969 5.78644 -23.0144 -0.247675 -3.49937 22.4681 16.8613 3.31138 -13.4433 0.0 0.0 0.0 0.0 0.0 
1015.45839025 740.618 -1569.43791911 25.8703245932 57.5416114639 -28.1799509609 -6.6317 1.15517 1.5632 -6.63095 1.05337 1.63352 -6.59657 0.473437 1.88511 -6.60071 0.765166 1.78673 -6.27472 7.88668 5.24973 -6.20243 10.7556 6.78225 -0.0 0.0 -0.0 2.20198 -7.22353 3.6278 -7.21879 -3.72903 78.3473 0.260233 -7.34575 0.0167048 -85.2384 -8.48172 5.17866 0.755045 -25.3813 -5.83132 -0.0 0.0 -0.0 1.41921 29.0099 0.227103 19.422 24.3317 -65.6823 1.22488 31.2468 -0.342544 35.5279 0.137317 4.46451 -1.77861 -28.2171 -1.36495 0.0 0.0 0.0 8.86189 12.5856 -1.8309 -60.3173 -2.23434 8.56031 23.7091 -23.621 -3.68387 -33.3673 0.0 0.0 -0.0 0.0 -0.0 -2.5605 6.38942 5.82883 -18.9686 -0.306485 -2.88148 23.031 23.2393 3.57926 -13.2884 0.0 0.0 0.0 0.0 0.0 
996.785174997 735.94 -1566.94912373 26.9564411672 58.2818069496 -29.0884484913 -6.69788 0.984237 1.73618 -6.69663 0.871784 1.79527 -6.66415 0.247107 1.98033 -6.66919 0.556705 1.91649 -7.37493 8.10992 4.983 -7.32117 11.5299 6.64184 -0.0 0.0 -0.0 1.89544 -4.50757 3.2532 -8.46841 -3.5919 79.6031 0.285765 -8.05742 0.0201265 -85.039 -8.4568 5.18362 1.30643 -26.8081 -2.90631 -0.0 0.0 -0.0 1.717 29.1591 -0.40361 20.7668 23.9133 -64.1508 1.53634 37.2707 -0.518119 34.4024 0.0905655 4.32844 -2.03589 -27.9918 0.135805 0.0 0.0 0.0 12.0775 9.44423 -2.25543 -57.3977 -1.92564 8.23254 19.811 -20.9266 -3.06648 -33.5917 0.0 0.0 -0.0 0.0 -0.0 -5.03374 5.63381 6.10367 -16.1355 -0.321636 -2.4471 22.6423 26.2584 3.64269 -14.3457 0.0 0.0 0.0 0.0 0.0 
975.501375004 735.158 -1560.07966782 27.1311995794 59.4098330797 -29.3116610551 -6.53179 1.018 1.75694 -6.53053 0.904154 1.81813 -6.49663 0.276295 2.01159 -6.50179 0.590462 1.94276 -6.53402 8.06988 4.66643 -6.47865 11.5619 6.25279 -0.0 0.0 -0.0 1.71508 -2.19894 3.10568 -10.0613 -3.17808 79.5476 0.317352 -8.93437 0.0247933 -84.6495 -8.40808 5.19306 1.69185 -27.7992 -0.898269 -0.0 0.0 -0.0 2.76457 29.2462 -2.66671 21.5056 23.2381 -62.698 1.67948 39.7559 -0.607269 33.1702 0.0424615 4.17846 -2.21263 -26.7537 1.71154 0.0 0.0 0.0 14.1669 9.92533 -3.77874 -55.89 -1.77291 8.05731 18.7484 -15.1782 -2.78385 -34.2552 0.0 0.0 -0.0 0.0 -0.0 -6.80822 5.12808 6.35409 -14.2531 -0.319821 -2.1583 24.0882 29.1408 3.97511 -14.0396 0.0 0.0 0.0 0.0 0.0 
955.255261471 738.752 -1556.96591326 27.9079255851 62.3920810814 -30.5305803203 -6.39421 0.851252 1.97589 -6.39233 0.723822 2.02603 -6.36069 0.043997 2.15094 -6.36694 0.383069 2.11703 -6.303 7.73888 4.52905 -6.24861 11.015 6.03409 -0.0 0.0 -0.0 1.43005 0.0769581 2.76209 -10.9558 -5.62684 79.1444 0.346591 -9.74239 0.0295379 -85.136 -8.46892 5.18122 2.28936 -28.7393 2.44539 -0.0 0.0 -0.0 2.46114 29.4557 -1.98634 21.7079 23.3538 -61.9569 1.83375 42.2474 -0.708508 32.3285 0.0114642 4.07544 -2.5005 -24.2794 4.58574 0.0 0.0 0.0 15.6257 8.74945 -4.81623 -52.2087 -1.41992 7.6133 15.6074 -14.8495 -2.34769 -34.5194 0.0 0.0 -0.0 0.0 -0.0 -7.94617 2.78803 7.0257 -11.8684 -0.303903 -1.79279 24.4992 30.8141 4.12039 -14.18 0.0 0.0 0.0 0.0 0.0 
930.323464019 736.055 -1551.54237758 28.6070434035 64.6265759134 -31.0917866771 -6.04663 0.639945 2.03556 -6.04446 0.509149 2.07213 -6.02036 -0.161731 2.12761 -6.02663 0.176237 2.12646 -5.0062 8.26319 4.65682 -4.93387 11.7016 6.1639 -0.0 0.0 -0.0 1.1366 3.89501 2.57041 -12.5461 -7.25117 78.4877 0.362384 -10.1772 0.0322694 -84.91 -8.44067 5.18679 2.58737 -28.4943 4.45822 -0.0 0.0 -0.0 3.04804 29.3545 -3.26972 21.7946 22.4354 -61.2167 2.01824 44.9885 -0.835819 30.6753 -0.0449901 3.87186 -2.58887 -20.9614 6.83471 0.0 0.0 0.0 15.2557 8.54741 -5.51706 -38.3965 -0.367921 5.7725 6.70446 -7.86379 -1.00187 -39.0779 0.0 0.0 -0.0 0.0 -0.0 -9.40634 1.51252 6.73507 -10.2004 -0.283734 -1.53766 26.3524 30.8493 4.37984 -15.1973 0.0 0.0 0.0 0.0 0.0 
903.930765437 734.969 -1541.98291378 30.0907257791 67.3166356306 -32.4892143572 -5.71934 0.478992 2.02886 -5.71712 0.348947 2.05521 -5.69952 -0.297235 2.06332 -5.70546 0.0322851 2.08436 -4.33604 8.56286 4.81129 -4.25132 12.033 6.32276 -0.0 0.0 -0.0 0.799958 6.98985 2.26201 -13.8652 -8.35868 77.7526 0.378065 -10.6078 0.0350983 -84.4409 -8.38197 5.19798 2.79349 -28.3064 5.86535 -0.0 0.0 -0.0 3.43551 28.7524 -4.17469 21.1223 21.2463 -60.6927 2.17083 47.0737 -0.945657 28.8364 -0.10085 3.64362 -2.55664 -17.1678 8.62615 0.0 0.0 0.0 14.9451 8.75724 -5.59087 -28.6104 0.0947782 4.34421 0.217489 -1.60532 -0.0323031 -40.2834 0.0 0.0 -0.0 0.0 -0.0 -10.9265 0.57876 6.50015 -9.4707 -0.272577 -1.42625 27.1801 31.1252 4.50833 -15.9407 0.0 0.0 0.0 0.0 0.0 
880.190885854 730.712 -1532.71648191 33.0029189435 69.7273368714 -35.4353370897 -5.52748 0.401871 2.00542 -5.52528 0.273474 2.02692 -5.51094 -0.353826 2.01445 -5.5166 -0.0313106 2.04503 -4.01382 8.37644 4.20327 -3.93757 12.107 5.64731 -0.0 0.0 -0.0 0.475635 9.20154 1.91886 -14.6685 -9.80644 76.8966 0.398523 -11.1677 0.0389623 -83.9906 -8.32551 5.20826 2.91478 -28.085 6.7536 -0.0 0.0 -0.0 3.60393 28.7273 -4.54272 21.5161 19.6358 -59.8188 2.27501 48.4097 -1.02277 27.3487 -0.140661 3.45775 -2.45094 -13.2862 9.96744 0.0 0.0 0.0 15.3859 8.8462 -5.85356 -21.1331 0.280451 3.21255 -4.05414 2.97842 0.601368 -40.0702 0.0 0.0 -0.0 0.0 -0.0 -12.3583 -0.106122 6.45724 -8.98741 -0.264406 -1.35254 27.8993 30.6666 4.57676 -16.4353 0.0 0.0 0.0 0.0 0.0 
879.718272963 730.712 -1528.51825656 33.7389045155 70.1355611387 -36.2188919436 -5.52748 0.401871 2.00542 -5.52528 0.273474 2.02692 -5.51094 -0.353826 2.01445 -5.5166 -0.0313106 2.04503 -4.01382 8.37644 4.20327 -3.93757 12.107 5.64731 -0.0 0.0 -0.0 0.475635 9.20154 1.91886 -14.6685 -9.80644 76.8966 0.398523 -11.1677 0.0389623 -83.9906 -8.32551 5.20826 2.91478 -28.085 6.7536 -0.0 0.0 -0.0 3.60393 28.7273 -4.54272 21.5161 19.6358 -59.8188 2.27501 48.4097 -1.02277 27.3487 -0.140661 3.45775 -2.45094 -13.2862 9.96744 0.0 0.0 0.0 15.3859 8.8462 -5.85356 -21.1331 0.280451 3.21255 -4.05414 2.97842 0.601368 -40.0702 0.0 0.0 -0.0 0.0 -0.0 -12.3583 -0.106122 6.45724 -8.98741 -0.264406 -1.35254 27.8993 30.6666 4.57676 -16.4353 0.0 0.0 0.0 0.0 0.0 
